# xmcd
#
# Track frame offsets: 
#        150
#        16115
#        32590
#        47245
#        68666
#        79777
#        101995
#        121364
#        131507
#        150359
#        172485
#        186625
#
# Disc length: 2751 seconds
#
# Revision: 2
# Processed by: cddbd v1.5.2PL0 Copyright (c) Steve Scherf et al.
# Submitted via: ExactAudioCopyFreeDBPlugin 1.0
#
DISCID=a20abd0c
DTITLE=Barry Saunders - Magnetic South
DYEAR=1998
DGENRE=New Zealand: Country/Blues
TTITLE0=Living On Dreams
TTITLE1=Postcard
TTITLE2=Colour Me Blue (Song for Jas)
TTITLE3=Far As The Eye Can See
TTITLE4=At Kaipara
TTITLE5=Holy Morning
TTITLE6=Love's On the Turn
TTITLE7=No Danger
TTITLE8=Truthful Train
TTITLE9=Love Comes Round
TTITLE10=Better Days
TTITLE11=Magnetic South
EXTD=
EXTT0=
EXTT1=
EXTT2=
EXTT3=
EXTT4=
EXTT5=
EXTT6=
EXTT7=
EXTT8=
EXTT9=
EXTT10=
EXTT11=
PLAYORDER=
